<svg viewBox="0 0 48 48" fill="none" xmlns="http://www.w3.org/2000/svg">
  <rect width="48" height="48" rx="12" fill="#1665D8"/>
  <g transform="translate(10, 10)">
    <!-- Lever Iconic Balance Fulcrum Bars -->
    <path fill="#FFFFFF" fill-rule="evenodd" clip-rule="evenodd" d="M3.5 5C2.67157 5 2 5.67157 2 6.5V21.5C2 22.3284 2.67157 23 3.5 23C4.32843 23 5 22.3284 5 21.5V6.5C5 5.67157 4.32843 5 3.5 5ZM10.5 11C9.67157 11 9 11.6716 9 12.5V21.5C9 22.3284 9.67157 23 10.5 23C11.3284 23 12 22.3284 12 21.5V12.5C12 11.6716 11.3284 11 10.5 11ZM17.5 7C16.6716 7 16 7.67157 16 8.5V21.5C16 22.3284 16.6716 23 17.5 23C18.3284 23 19 22.3284 19 21.5V8.5C19 7.67157 18.3284 7 17.5 7ZM24.5 15C23.6716 15 23 15.6716 23 16.5V21.5C23 22.3284 23.6716 23 24.5 23C25.3284 23 26 22.3284 26 21.5V16.5C26 15.6716 25.3284 15 24.5 15Z"/>
  </g>
</svg>
